# xmcd CD database file
#
# Track frame offsets:
#	150
#	49074
#	104014
#	112110
#	129383
#	222270
#	287536
#
# Disc length: 4563 seconds
#
# Revision: 0
# Processed by: cddbd v1.5.1PL0 Copyright (c) Steve Scherf et al.
# Submitted via: CDex 1.51
#
DISCID=6911d107
DTITLE=Miles Davis - Footprints Live At Fillmore West
DYEAR=1970
DGENRE=Jazz
TTITLE0=It's About That Time
TTITLE1=Directions
TTITLE2=I Fall In Love Too Easily
TTITLE3=Sanctuary
TTITLE4=Footprints - Agitation - No Blues
TTITLE5=Bitches Brew
TTITLE6=Spanish Key - The Theme
EXTD=YEAR: 1970
EXTT0=
EXTT1=
EXTT2=
EXTT3=
EXTT4=
EXTT5=
EXTT6=
PLAYORDER=
